<?xml version="1.0" standalone="no"?>
<!DOCTYPE svg PUBLIC "-//W3C//DTD SVG 20010904//EN"
 "http://www.w3.org/TR/2001/REC-SVG-20010904/DTD/svg10.dtd">
<svg version="1.0" xmlns="http://www.w3.org/2000/svg"
 width="258.000000pt" height="258.000000pt" viewBox="0 0 258.000000 258.000000"
 preserveAspectRatio="xMidYMid meet">
<metadata>
Created by potrace 1.11, written by Peter Selinger 2001-2013
</metadata>
<g transform="translate(0.000000,258.000000) scale(0.100000,-0.100000)"
fill="#000000" stroke="none">
<path d="M1430 1927 c0 -3 -11 -63 -25 -134 -28 -140 -61 -264 -135 -509 -49
-161 -76 -267 -86 -334 -3 -19 -7 -48 -10 -65 -5 -32 -42 -192 -49 -212 -2 -7
4 -13 14 -13 14 0 22 18 40 93 12 50 24 112 26 136 9 75 42 210 96 386 45 148
84 287 94 335 2 8 13 53 24 100 19 80 34 168 36 199 0 8 -6 16 -12 19 -7 2
-13 1 -13 -1z"/>
<path d="M835 1714 c-250 -143 -345 -192 -495 -254 -131 -55 -323 -152 -324
-164 -1 -13 102 -67 274 -143 185 -81 243 -111 535 -277 131 -75 242 -136 246
-136 4 0 13 10 22 23 15 23 14 24 -257 178 -149 84 -282 159 -296 166 -14 6
-108 49 -209 95 -101 46 -184 88 -184 93 1 9 123 67 359 170 69 30 548 298
571 319 9 8 8 16 -5 33 l-17 23 -220 -126z"/>
<path d="M1490 1821 c-5 -11 -10 -24 -10 -29 0 -6 109 -72 243 -148 327 -185
315 -179 462 -244 224 -99 255 -113 255 -120 0 -7 -143 -76 -242 -116 -127
-52 -205 -92 -450 -231 -251 -143 -256 -146 -245 -170 7 -16 17 -23 28 -20 10
3 120 63 246 134 233 133 310 172 493 250 127 54 300 142 300 152 0 9 -168 93
-292 147 -164 71 -227 103 -470 242 -331 189 -305 176 -318 153z"/>
<path d="M838 1402 c-16 -9 -29 -23 -29 -32 -4 -56 18 -83 81 -100 40 -11 56
-34 44 -64 -3 -9 -14 -16 -23 -17 -34 -2 -66 3 -79 14 -10 8 -16 7 -23 -4 -14
-22 -11 -26 22 -38 80 -28 146 -1 156 63 5 32 -24 63 -79 84 -43 16 -53 24
-53 43 0 29 43 42 79 24 23 -12 27 -12 36 5 8 15 5 20 -22 29 -44 15 -78 13
-110 -7z"/>
<path d="M1624 1405 c-22 -17 -38 -20 -29 -5 3 6 -4 10 -17 10 -23 0 -23 -1
-23 -125 0 -122 0 -125 22 -125 21 0 22 4 25 96 3 93 4 98 31 118 l29 21 17
-21 c14 -17 17 -40 16 -118 -1 -93 0 -96 22 -96 21 0 22 4 25 96 3 93 4 98 31
117 26 20 28 20 45 4 14 -14 17 -36 17 -115 0 -94 1 -97 23 -100 l24 -4 -4
116 c-3 101 -5 117 -23 130 -27 21 -68 20 -96 -3 -22 -18 -23 -18 -43 0 -24
23 -65 24 -92 4z"/>
</g>
</svg>
